<?xml version="1.0" encoding="UTF-8" standalone="no"?>
<svg
   xmlns:dc="http://purl.org/dc/elements/1.1/"
   xmlns:cc="http://creativecommons.org/ns#"
   xmlns:rdf="http://www.w3.org/1999/02/22-rdf-syntax-ns#"
   xmlns:svg="http://www.w3.org/2000/svg"
   xmlns="http://www.w3.org/2000/svg"
   xmlns:sodipodi="http://sodipodi.sourceforge.net/DTD/sodipodi-0.dtd"
   xmlns:inkscape="http://www.inkscape.org/namespaces/inkscape"
   version="1.1"
   id="Layer_1"
   x="0px"
   y="0px"
   viewBox="0 0 982.89447 234.24219"
   xml:space="preserve"
   sodipodi:docname="tufaaa.svg"
   inkscape:version="0.92.4 (5da689c313, 2019-01-14)"
   width="982.89447"
   height="234.24219"><metadata
   id="metadata11"><rdf:RDF><cc:Work
       rdf:about=""><dc:format>image/svg+xml</dc:format><dc:type
         rdf:resource="http://purl.org/dc/dcmitype/StillImage" /><dc:title></dc:title></cc:Work></rdf:RDF></metadata><sodipodi:namedview
   pagecolor="#ffffff"
   bordercolor="#666666"
   borderopacity="1"
   objecttolerance="10"
   gridtolerance="10"
   guidetolerance="10"
   inkscape:pageopacity="0"
   inkscape:pageshadow="2"
   inkscape:window-width="1366"
   inkscape:window-height="715"
   id="namedview9"
   showgrid="false"
   inkscape:zoom="0.4609375"
   inkscape:cx="141.24383"
   inkscape:cy="83.258672"
   inkscape:window-x="-8"
   inkscape:window-y="-8"
   inkscape:window-maximized="1"
   inkscape:current-layer="Layer_1"
   fit-margin-top="0"
   fit-margin-left="0"
   fit-margin-right="0"
   fit-margin-bottom="0" /><defs
   id="defs17" />
<g
   id="g67"
   transform="translate(-9.5928891,-381.90763)"><g
     id="text12"
     transform="translate(0.1094,609.51137)"
     aria-label="Tufa"><path
       inkscape:connector-curvature="0"
       id="path43"
       style="font-size:316.11630249px;font-family:Proun"
       d="M 9.4834891,-221.28141 H 212.11404 l -10.11572,12.96077 H 118.2275 V -6.322326 L 103.37003,6.322326 V -208.32064 H 19.599211 Z" /><path
       inkscape:connector-curvature="0"
       id="path45"
       style="font-size:316.11630249px;font-family:Proun"
       d="m 253.26349,0 v -227.60374 l 14.85746,12.64465 v 201.998322 h 122.96924 q 27.50212,0 44.25629,-15.173583 17.07028,-15.489699 17.07028,-42.043468 V -214.95909 l 14.85746,-12.64465 v 157.425921 q 0,29.0827 -18.65086,48.68191 Q 428.0758,0 392.03854,0 Z" /><path
       inkscape:connector-curvature="0"
       id="path47"
       style="font-size:316.11630249px;font-family:Proun"
       d="m 514.67685,-148.25855 h 18.96698 v -3.16116 q 0,-32.24386 21.17979,-50.89472 21.49591,-18.96698 54.05589,-18.96698 H 740.7 l -12.01242,12.96077 H 609.82785 q -27.50211,0 -44.57239,15.4897 -16.75417,15.17358 -16.75417,41.41123 v 3.16116 h 117.27915 l -11.6963,12.96077 H 548.50129 V -6.322326 L 533.64383,6.322326 V -135.29778 Z" /><path
       inkscape:connector-curvature="0"
       id="path49"
       style="font-size:316.11630249px;font-family:Proun"
       d="M 992.37797,-221.28141 V -6.0062097 L 977.5205,6.6384424 V -135.29778 H 796.70198 V -6.322326 L 781.84451,6.322326 V -135.29778 l -18.96698,-12.96077 h 18.96698 v -3.16116 q 0,-32.24386 21.17979,-50.89472 21.49591,-18.96698 54.05589,-18.96698 z m -14.85747,73.02286 v -60.06209 H 858.02854 q -27.50212,0 -44.5724,15.4897 -16.75416,15.17358 -16.75416,41.41123 v 3.16116 z" /></g></g>
</svg>